<?xml version="1.0" standalone="no"?>
<!DOCTYPE svg PUBLIC "-//W3C//DTD SVG 20010904//EN"
 "http://www.w3.org/TR/2001/REC-SVG-20010904/DTD/svg10.dtd">
<svg version="1.0" xmlns="http://www.w3.org/2000/svg"
 width="128.000000pt" height="128.000000pt" viewBox="0 0 128.000000 128.000000"
 preserveAspectRatio="xMidYMid meet">
<metadata>
Created by potrace 1.16, written by Peter Selinger 2001-2019
</metadata>
<g transform="translate(0.000000,128.000000) scale(0.100000,-0.100000)"
fill="#000000" stroke="none">
<path d="M727 1252 c-29 -30 -35 -60 -15 -80 9 -9 -5 -29 -60 -86 -88 -90
-115 -146 -116 -236 -1 -36 2 -77 7 -93 7 -26 6 -27 -20 -20 -16 5 -57 8 -93
7 -90 -1 -146 -29 -236 -116 -57 -55 -77 -69 -86 -60 -32 32 -108 -17 -108
-69 0 -35 464 -499 500 -499 51 0 100 76 68 108 -9 9 5 29 60 86 87 90 115
146 116 236 1 36 -2 77 -7 93 -7 26 -6 27 20 20 16 -5 57 -8 93 -7 90 1 146
29 236 116 57 55 77 69 86 60 20 -20 53 -13 81 16 50 52 47 57 -211 315 -258
258 -264 262 -315 209z m493 -486 c-14 -14 -466 437 -455 454 5 8 83 -63 236
-216 153 -153 225 -232 219 -238z m-120 0 c-19 -19 -267 -11 -384 13 -61 12
-113 24 -118 27 -14 9 -9 90 8 130 9 21 48 71 87 111 l71 74 173 -173 c113
-113 169 -176 163 -182z m-173 -60 l132 -1 -36 -37 c-72 -74 -189 -101 -276
-64 -42 17 -113 80 -132 116 l-14 27 97 -20 c64 -13 142 -20 229 -21z m-387
-33 c48 -19 109 -80 132 -132 21 -45 28 -155 11 -172 -5 -5 -40 -11 -79 -15
-141 -13 -314 37 -397 115 l-48 45 63 63 c35 35 77 73 95 84 62 39 147 43 223
12z m-241 -377 c146 -146 221 -228 216 -236 -5 -8 -83 63 -236 216 -201 201
-238 244 -211 244 4 0 108 -101 231 -224z m91 23 c19 -6 86 -14 148 -17 l113
-7 -68 -67 -68 -68 -85 85 c-47 47 -82 85 -80 85 3 0 21 -5 40 -11z"/>
<path d="M387 1213 c-16 -15 -5 -34 28 -50 19 -9 35 -19 35 -22 0 -3 -28 -19
-63 -35 -128 -60 -246 -216 -277 -368 -12 -63 -9 -78 20 -78 20 0 24 9 35 75
19 109 109 236 219 307 75 49 92 49 65 3 -22 -37 -19 -55 11 -55 19 0 100 116
100 145 0 8 -30 30 -70 50 -69 35 -91 41 -103 28z"/>
<path d="M1126 603 c-3 -10 -8 -36 -12 -58 -19 -110 -108 -235 -218 -307 -75
-49 -92 -49 -65 -3 22 37 19 55 -11 55 -19 0 -100 -117 -100 -145 0 -20 141
-90 164 -82 27 11 18 36 -19 54 -19 9 -35 19 -35 22 0 3 28 19 63 35 88 41
183 139 230 236 36 76 63 181 52 200 -10 16 -43 11 -49 -7z"/>
</g>
</svg>
